# Blender v3.1.2 OBJ File: 'director_task.blend'
# www.blender.org
mtllib box_C1.mtl
o box_C1_Cube.088
v -6.184503 -7.420508 1.251720
v -6.184503 -7.420508 1.486720
v -6.184503 -7.570508 1.251720
v -6.184503 -7.570508 1.486720
v -6.419503 -7.420508 1.251720
v -6.419503 -7.420508 1.486720
v -6.419503 -7.570508 1.251720
v -6.419503 -7.570508 1.486720
v -6.202012 -7.420508 1.269229
v -6.202012 -7.420508 1.469212
v -6.401994 -7.420508 1.469212
v -6.401994 -7.420508 1.269229
v -6.202007 -7.570508 1.469216
v -6.202007 -7.570508 1.269225
v -6.401999 -7.570508 1.269225
v -6.401999 -7.570508 1.469216
v -6.302800 -7.345643 1.369210
v -6.302800 -7.345643 1.369210
v -6.302800 -7.345643 1.369210
v -6.419501 -7.420495 1.486719
v -6.349502 -7.420495 1.486719
v -6.419501 -7.420495 1.416720
v -6.349502 -7.420495 1.416720
v -6.419501 -7.417495 1.416720
v -6.419501 -7.417495 1.486719
v -6.349502 -7.417495 1.486719
v -6.349502 -7.417495 1.416720
v -6.254516 -7.573564 1.486719
v -6.184517 -7.573564 1.486719
v -6.254516 -7.573564 1.416720
v -6.184517 -7.573564 1.416720
v -6.254516 -7.570564 1.416720
v -6.254516 -7.570564 1.486719
v -6.184517 -7.570564 1.486719
v -6.184517 -7.570564 1.416720
vt 0.212968 0.666667
vt 0.212968 0.333333
vt 0.351527 0.333333
vt 0.351527 0.666667
vt 0.351527 0.000000
vt 0.342488 0.311588
vt 0.342488 0.021746
vt 0.074409 0.333333
vt 0.074409 0.000000
vt 0.212968 0.000000
vt 0.212968 0.333333
vt 0.083451 0.355085
vt 0.083451 0.644915
vt 0.074409 0.666667
vt 0.074409 0.333333
vt 0.074409 0.666667
vt 0.212968 0.666667
vt 0.212968 1.000000
vt 0.074409 1.000000
vt 0.490086 0.000000
vt 0.490086 0.333333
vt 0.351527 0.333333
vt 0.351527 0.000000
vt 0.351530 0.666667
vt 0.351527 0.333333
vt 0.472008 0.333333
vt 0.472005 0.666667
vt 0.203927 0.644915
vt 0.212968 0.666667
vt 0.212968 0.333333
vt 0.203927 0.355085
vt 0.453927 1.000000
vt 0.333451 1.000000
vt 0.333449 0.666667
vt 0.453929 0.666667
vt 0.222008 0.311588
vt 0.212968 0.000000
vt 0.222008 0.021746
vt 0.212968 0.666667
vt 0.333446 1.000000
vt 0.212971 1.000000
vt 0.453929 0.666667
vt 0.574409 0.666667
vt 0.574407 1.000000
vt 0.453932 1.000000
vt 0.475004 0.424356
vt 0.475004 0.575644
vt 0.524996 0.575644
vt 0.524996 0.424356
vt 0.815894 0.640825
vt 0.782982 0.640825
vt 0.782982 0.544763
vt 0.815894 0.544763
vt 0.790786 0.605860
vt 0.790786 0.576119
vt 0.790786 0.576119
vt 0.790786 0.605860
vt 0.806261 0.617694
vt 0.792321 0.617694
vt 0.792321 0.617694
vt 0.806261 0.617694
vt 0.790140 0.568252
vt 0.809003 0.568252
vt 0.809003 0.568252
vt 0.790140 0.568252
vt 0.808656 0.566974
vt 0.808656 0.611853
vt 0.808656 0.611853
vt 0.808656 0.566974
vt 0.877121 0.794374
vt 0.877121 0.698511
vt 0.909904 0.698511
vt 0.909904 0.794374
vt 0.550918 0.669137
vt 0.626998 0.669137
vt 0.626998 0.899191
vt 0.550918 0.899191
vt 0.790122 0.616275
vt 0.790122 0.567171
vt 0.790122 0.567171
vt 0.790122 0.616275
vt 0.807767 0.620487
vt 0.792533 0.620487
vt 0.792533 0.620487
vt 0.807767 0.620487
vt 0.792353 0.569652
vt 0.807795 0.569652
vt 0.807795 0.569652
vt 0.792353 0.569652
vt 0.789978 0.572051
vt 0.789978 0.609633
vt 0.789978 0.609633
vt 0.789978 0.572051
vn 1.0000 0.0000 0.0000
vn 0.0000 -1.0000 0.0000
vn -1.0000 0.0000 0.0000
vn 0.0000 1.0000 0.0000
vn 0.0000 0.0000 -1.0000
vn 0.0000 0.0000 1.0000
usemtl dt_box
s off
f 2/1/1 4/2/1 3/3/1 1/4/1
f 7/5/2 3/3/2 14/6/2 15/7/2
f 8/8/3 6/9/3 5/10/3 7/11/3
f 11/12/4 12/13/4 5/14/4 6/15/4
f 3/16/5 7/17/5 5/18/5 1/19/5
f 8/20/6 4/21/6 2/22/6 6/23/6
f 11/24/1 16/25/1 15/26/1 12/27/1
f 5/14/4 12/13/4 9/28/4 1/29/4
f 2/30/4 1/29/4 9/28/4 10/31/4
f 6/15/4 2/30/4 10/31/4 11/12/4
f 11/32/5 10/33/5 13/34/5 16/35/5
f 14/6/2 3/3/2 4/2/2 13/36/2
f 8/37/2 16/38/2 13/36/2 4/2/2
f 8/37/2 7/5/2 15/7/2 16/38/2
f 14/39/3 13/34/3 10/40/3 9/41/3
f 15/42/6 14/43/6 9/44/6 12/45/6
f 20/46/2 22/47/2 23/48/2 21/49/2
f 25/50/4 26/51/4 27/52/4 24/53/4
f 22/54/3 20/55/3 25/56/3 24/57/3
f 23/58/5 22/59/5 24/60/5 27/61/5
f 20/62/6 21/63/6 26/64/6 25/65/6
f 21/66/1 23/67/1 27/68/1 26/69/1
f 28/70/2 30/71/2 31/72/2 29/73/2
f 33/74/4 34/75/4 35/76/4 32/77/4
f 30/78/3 28/79/3 33/80/3 32/81/3
f 31/82/5 30/83/5 32/84/5 35/85/5
f 28/86/6 29/87/6 34/88/6 33/89/6
f 29/90/1 31/91/1 35/92/1 34/93/1
