# Blender v3.1.2 OBJ File: 'director_task.blend'
# www.blender.org
mtllib box_C5.mtl
o box_C5_Cube.089
v -6.413082 -7.570508 0.995676
v -6.413082 -7.570508 1.230676
v -6.413082 -7.420508 0.995676
v -6.413082 -7.420508 1.230676
v -6.178082 -7.570508 0.995676
v -6.178082 -7.570508 1.230676
v -6.178082 -7.420508 0.995676
v -6.178082 -7.420508 1.230676
v -6.395574 -7.570508 1.013185
v -6.395574 -7.570508 1.213167
v -6.195591 -7.570508 1.213167
v -6.195591 -7.570508 1.013185
v -6.395578 -7.420508 1.213171
v -6.395578 -7.420508 1.013181
v -6.195587 -7.420508 1.013181
v -6.195587 -7.420508 1.213171
v -6.294785 -7.645372 1.113166
v -6.294785 -7.645372 1.113166
v -6.294785 -7.645372 1.113166
v -6.178084 -7.570520 1.230675
v -6.248084 -7.570520 1.230675
v -6.178084 -7.570520 1.160676
v -6.248084 -7.570520 1.160676
v -6.178084 -7.573520 1.160676
v -6.178084 -7.573520 1.230675
v -6.248084 -7.573520 1.230675
v -6.248084 -7.573520 1.160676
v -6.343069 -7.399951 1.230675
v -6.413068 -7.399951 1.230675
v -6.343069 -7.399951 1.160676
v -6.413068 -7.399951 1.160676
v -6.343069 -7.402951 1.160676
v -6.343069 -7.402951 1.230675
v -6.413068 -7.402951 1.230675
v -6.413068 -7.402951 1.160676
v -6.413082 -7.403008 0.995676
v -6.413082 -7.403008 1.230676
v -6.178082 -7.403008 0.995676
v -6.178082 -7.403008 1.230676
vt 0.279514 0.298498
vt 0.383681 0.298498
vt 0.383681 0.649249
vt 0.279514 0.649249
vt 0.267361 0.649249
vt 0.267361 0.298498
vt 0.279514 0.298498
vt 0.279514 0.649249
vt 0.163194 0.649249
vt 0.163194 0.298498
vt 0.012159 0.026133
vt 0.012159 0.324618
vt 0.000000 0.350751
vt 0.000000 0.000000
vt 0.175347 1.000000
vt 0.175347 0.649249
vt 0.279514 0.649249
vt 0.279514 1.000000
vt 0.383681 0.649249
vt 0.383681 1.000000
vt 0.279514 1.000000
vt 0.279514 0.649249
vt 0.104167 0.999994
vt 0.000000 1.000000
vt 0.000000 0.701502
vt 0.104167 0.701508
vt 0.151036 0.324618
vt 0.163194 0.350751
vt 0.163194 0.000000
vt 0.151036 0.026133
vt 0.500000 0.298504
vt 0.500000 0.596989
vt 0.395833 0.596996
vt 0.395833 0.298498
vt 0.395833 0.649249
vt 0.395833 1.000000
vt 0.163194 1.000000
vt 0.163194 0.649249
vt 0.163194 0.298498
vt 0.163194 0.000000
vt 0.302077 0.000000
vt 0.302077 0.298498
vt 0.406244 0.000000
vt 0.406244 0.298498
vt 0.302077 0.298492
vt 0.302077 0.000006
vt 0.500000 0.649249
vt 0.500000 0.947747
vt 0.395833 0.947741
vt 0.395833 0.649255
vt 0.104167 0.805980
vt 0.152777 0.805980
vt 0.152777 0.910458
vt 0.104167 0.910458
vt 0.910006 0.333735
vt 0.877074 0.333735
vt 0.877074 0.237688
vt 0.910006 0.237688
vt 0.791540 0.579579
vt 0.791540 0.612317
vt 0.790887 0.612317
vt 0.790887 0.579579
vt 0.791544 0.613460
vt 0.791544 0.573861
vt 0.792333 0.573861
vt 0.792333 0.613460
vt 0.791549 0.570123
vt 0.791549 0.609326
vt 0.790768 0.609326
vt 0.790767 0.570123
vt 0.790949 0.617420
vt 0.790949 0.575995
vt 0.791775 0.575995
vt 0.791775 0.617420
vt 0.830049 0.333303
vt 0.830049 0.237626
vt 0.862941 0.237626
vt 0.862941 0.333303
vt 0.406244 0.104478
vt 0.454854 0.104478
vt 0.454854 0.208956
vt 0.406244 0.208956
vt 0.791166 0.576826
vt 0.791166 0.603243
vt 0.790639 0.603243
vt 0.790639 0.576826
vt 0.790818 0.614533
vt 0.790818 0.576511
vt 0.791576 0.576511
vt 0.791576 0.614533
vt 0.791522 0.571238
vt 0.791522 0.618271
vt 0.790584 0.618271
vt 0.790584 0.571238
vt 0.791792 0.578849
vt 0.791792 0.617245
vt 0.791026 0.617245
vt 0.791026 0.578849
vt 0.395833 0.298498
vt 0.395833 0.649249
vt 0.000071 0.000071
vt 0.500000 0.000071
vt 0.500000 0.999929
vt 0.000071 0.999929
vn -1.0000 0.0000 0.0000
vn 1.0000 0.0000 0.0000
vn 0.0000 -1.0000 0.0000
vn 0.0000 0.0000 -1.0000
vn 0.0000 0.0000 1.0000
vn 0.0000 1.0000 0.0000
usemtl dt_box
s off
f 2/1/1 4/2/1 3/3/1 1/4/1
f 8/5/2 7/6/2 38/7/2 39/8/2
f 8/5/2 6/9/2 5/10/2 7/6/2
f 11/11/3 12/12/3 5/13/3 6/14/3
f 3/15/4 7/16/4 5/17/4 1/18/4
f 8/19/5 4/20/5 2/21/5 6/22/5
f 11/23/1 16/24/1 15/25/1 12/26/1
f 5/13/3 12/12/3 9/27/3 1/28/3
f 2/29/3 1/28/3 9/27/3 10/30/3
f 6/14/3 2/29/3 10/30/3 11/11/3
f 11/31/4 10/32/4 13/33/4 16/34/4
f 4/20/5 8/19/5 39/35/5 37/36/5
f 7/16/4 3/15/4 36/37/4 38/38/4
f 15/39/3 16/40/3 13/41/3 14/42/3
f 14/43/2 13/44/2 10/45/2 9/46/2
f 15/47/5 14/48/5 9/49/5 12/50/5
f 20/51/6 22/52/6 23/53/6 21/54/6
f 25/55/3 26/56/3 27/57/3 24/58/3
f 22/59/2 20/60/2 25/61/2 24/62/2
f 23/63/4 22/64/4 24/65/4 27/66/4
f 20/67/5 21/68/5 26/69/5 25/70/5
f 21/71/1 23/72/1 27/73/1 26/74/1
f 28/75/6 30/76/6 31/77/6 29/78/6
f 33/79/3 34/80/3 35/81/3 32/82/3
f 30/83/2 28/84/2 33/85/2 32/86/2
f 31/87/4 30/88/4 32/89/4 35/90/4
f 28/91/5 29/92/5 34/93/5 33/94/5
f 29/95/1 31/96/1 35/97/1 34/98/1
f 3/3/1 4/2/1 37/99/1 36/100/1
f 37/101/6 39/102/6 38/103/6 36/104/6
