# Blender v3.1.2 OBJ File: 'director_task.blend'
# www.blender.org
mtllib cube_BBCG.mtl
o dt_cube_BBRG_Cube.065
v -6.205368 -7.510643 1.049617
v -6.205368 -7.510643 1.189617
v -6.205368 -7.580643 1.049617
v -6.205368 -7.580643 1.189617
v -6.275368 -7.510643 1.049617
v -6.275368 -7.510643 1.189617
v -6.275368 -7.580643 1.049617
v -6.275368 -7.580643 1.189617
vt 0.395183 0.538500
vt 0.395183 0.531404
vt 0.403571 0.531404
vt 0.403571 0.538500
vt 0.464907 0.516763
vt 0.465122 0.746407
vt 0.254846 0.746215
vt 0.254486 0.516744
vt 0.394176 0.538719
vt 0.394176 0.532462
vt 0.401572 0.532462
vt 0.401572 0.538719
vt 0.464814 0.516595
vt 0.465029 0.746379
vt 0.255164 0.746187
vt 0.254804 0.516576
vt 0.383623 0.532933
vt 0.395788 0.532933
vt 0.395788 0.538078
vt 0.383623 0.538078
vt 0.410287 0.539582
vt 0.387895 0.539582
vt 0.387895 0.530110
vt 0.410287 0.530110
vn 1.0000 0.0000 0.0000
vn 0.0000 -1.0000 0.0000
vn -1.0000 0.0000 0.0000
vn 0.0000 1.0000 0.0000
vn 0.0000 0.0000 -1.0000
vn 0.0000 0.0000 1.0000
usemtl dt_cubes
s off
f 1/1/1 2/2/1 4/3/1 3/4/1
f 3/5/2 4/6/2 8/7/2 7/8/2
f 7/9/3 8/10/3 6/11/3 5/12/3
f 5/13/4 6/14/4 2/15/4 1/16/4
f 3/17/5 7/18/5 5/19/5 1/20/5
f 8/21/6 4/22/6 2/23/6 6/24/6
