# Blender v3.1.2 OBJ File: 'director_task.blend'
# www.blender.org
mtllib cube_BGCB.mtl
o dt_cube_BGRB_Cube.071
v -6.354002 -7.510643 1.049617
v -6.354002 -7.510643 1.189617
v -6.354002 -7.580643 1.049617
v -6.354002 -7.580643 1.189617
v -6.424001 -7.510643 1.049617
v -6.424001 -7.510643 1.189617
v -6.424001 -7.580643 1.049617
v -6.424001 -7.580643 1.189617
vt 0.553265 0.543156
vt 0.553265 0.536732
vt 0.560858 0.536732
vt 0.560858 0.543156
vt 0.718931 0.516806
vt 0.719133 0.746447
vt 0.508843 0.746416
vt 0.509237 0.516721
vt 0.552353 0.543354
vt 0.552353 0.537690
vt 0.559048 0.537690
vt 0.559048 0.543354
vt 0.718839 0.516639
vt 0.719041 0.746419
vt 0.509161 0.746387
vt 0.509555 0.516554
vt 0.542800 0.538116
vt 0.553812 0.538116
vt 0.553812 0.542774
vt 0.542800 0.542774
vt 0.566937 0.544135
vt 0.546667 0.544135
vt 0.546667 0.535561
vt 0.566937 0.535561
vn 1.0000 0.0000 0.0000
vn 0.0000 -1.0000 0.0000
vn -1.0000 0.0000 0.0000
vn 0.0000 1.0000 0.0000
vn 0.0000 0.0000 -1.0000
vn 0.0000 0.0000 1.0000
usemtl dt_cubes
s off
f 1/1/1 2/2/1 4/3/1 3/4/1
f 3/5/2 4/6/2 8/7/2 7/8/2
f 7/9/3 8/10/3 6/11/3 5/12/3
f 5/13/4 6/14/4 2/15/4 1/16/4
f 3/17/5 7/18/5 5/19/5 1/20/5
f 8/21/6 4/22/6 2/23/6 6/24/6
