# Blender v3.1.2 OBJ File: 'director_task.blend'
# www.blender.org
mtllib cube_BGTG.mtl
o dt_cube_GBTG_Cube.075
v -6.069121 -7.510643 0.676264
v -6.069121 -7.510643 0.816264
v -6.069121 -7.580643 0.676264
v -6.069121 -7.580643 0.816264
v -6.139121 -7.510643 0.676264
v -6.139121 -7.510643 0.816264
v -6.139121 -7.580643 0.676264
v -6.139121 -7.580643 0.816264
vt 0.149373 0.027814
vt 0.149373 0.022109
vt 0.156116 0.022109
vt 0.156116 0.027814
vt 0.221908 0.000732
vt 0.221908 0.230559
vt 0.011859 0.230559
vt 0.011859 0.000732
vt 0.148562 0.027990
vt 0.148562 0.022960
vt 0.154509 0.022960
vt 0.154509 0.027990
vt 0.221816 0.000565
vt 0.221816 0.230531
vt 0.012177 0.230531
vt 0.012177 0.000565
vt 0.140078 0.023338
vt 0.149858 0.023338
vt 0.149858 0.027475
vt 0.140078 0.027475
vt 0.161515 0.028683
vt 0.143513 0.028683
vt 0.143513 0.021069
vt 0.161515 0.021069
vn 1.0000 0.0000 0.0000
vn 0.0000 -1.0000 0.0000
vn -1.0000 0.0000 0.0000
vn 0.0000 1.0000 0.0000
vn 0.0000 0.0000 -1.0000
vn 0.0000 0.0000 1.0000
usemtl dt_cubes
s off
f 1/1/1 2/2/1 4/3/1 3/4/1
f 3/5/2 4/6/2 8/7/2 7/8/2
f 7/9/3 8/10/3 6/11/3 5/12/3
f 5/13/4 6/14/4 2/15/4 1/16/4
f 3/17/5 7/18/5 5/19/5 1/20/5
f 8/21/6 4/22/6 2/23/6 6/24/6
