# Blender v3.1.2 OBJ File: 'director_task.blend'
# www.blender.org
mtllib cube_GBCB.mtl
o dt_cube_GBRB_Cube.074
v -6.490249 -7.510643 1.240717
v -6.490249 -7.510643 1.380717
v -6.490249 -7.580643 1.240717
v -6.490249 -7.580643 1.380717
v -6.560248 -7.510643 1.240717
v -6.560248 -7.510643 1.380717
v -6.560248 -7.580643 1.240717
v -6.560248 -7.580643 1.380717
vt 0.815910 0.796579
vt 0.815910 0.792214
vt 0.821070 0.792214
vt 0.821070 0.796579
vt 0.975184 0.770294
vt 0.975317 0.999958
vt 0.764343 0.999980
vt 0.764927 0.770678
vt 0.815290 0.796714
vt 0.815290 0.792865
vt 0.819840 0.792865
vt 0.819840 0.796714
vt 0.975092 0.770127
vt 0.975225 0.999929
vt 0.764661 0.999952
vt 0.765245 0.770511
vt 0.808798 0.793154
vt 0.816281 0.793154
vt 0.816281 0.796320
vt 0.808798 0.796320
vt 0.825201 0.797244
vt 0.811426 0.797244
vt 0.811426 0.791418
vt 0.825201 0.791418
vn 1.0000 0.0000 0.0000
vn 0.0000 -1.0000 0.0000
vn -1.0000 0.0000 0.0000
vn 0.0000 1.0000 0.0000
vn 0.0000 0.0000 -1.0000
vn 0.0000 0.0000 1.0000
usemtl dt_cubes
s off
f 1/1/1 2/2/1 4/3/1 3/4/1
f 3/5/2 4/6/2 8/7/2 7/8/2
f 7/9/3 8/10/3 6/11/3 5/12/3
f 5/13/4 6/14/4 2/15/4 1/16/4
f 3/17/5 7/18/5 5/19/5 1/20/5
f 8/21/6 4/22/6 2/23/6 6/24/6
